<svg xmlns="http://www.w3.org/2000/svg" xmlns:xlink="http://www.w3.org/1999/xlink" width="50" zoomAndPan="magnify" viewBox="0 0 37.5 37.499999" height="50" preserveAspectRatio="xMidYMid meet" version="1.0"><defs><clipPath id="d11fded161"><path d="M 11.359375 11.101562 L 25.421875 11.101562 L 25.421875 25.90625 L 11.359375 25.90625 Z M 11.359375 11.101562 " clip-rule="nonzero"/></clipPath></defs><g clip-path="url(#d11fded161)"><path fill="#ffffff" d="M 25.644531 17.839844 L 25.644531 23.707031 C 25.644531 24.917969 24.660156 25.902344 23.445312 25.902344 L 21.25 25.902344 C 20.34375 25.902344 19.601562 25.167969 19.601562 24.261719 L 19.601562 23.15625 C 19.601562 22.855469 19.355469 22.613281 19.050781 22.613281 L 17.953125 22.613281 C 17.652344 22.613281 17.402344 22.855469 17.402344 23.15625 L 17.402344 24.261719 C 17.402344 25.167969 16.660156 25.902344 15.757812 25.902344 L 13.558594 25.902344 C 12.34375 25.902344 11.359375 24.917969 11.359375 23.707031 L 11.359375 17.839844 C 11.359375 17.230469 11.621094 16.636719 12.074219 16.222656 L 17.019531 11.691406 C 17.441406 11.300781 17.976562 11.105469 18.503906 11.105469 C 19.03125 11.105469 19.5625 11.300781 19.984375 11.691406 L 24.929688 16.222656 C 25.386719 16.636719 25.644531 17.230469 25.644531 17.839844 Z M 25.644531 17.839844 " fill-opacity="1" fill-rule="nonzero"/></g></svg>