<svg xmlns="http://www.w3.org/2000/svg" xmlns:xlink="http://www.w3.org/1999/xlink" width="50" zoomAndPan="magnify" viewBox="0 0 37.5 37.499999" height="50" preserveAspectRatio="xMidYMid meet" version="1.0"><defs><clipPath id="e6d71480ff"><path d="M 11.359375 11.101562 L 25.421875 11.101562 L 25.421875 25.90625 L 11.359375 25.90625 Z M 11.359375 11.101562 " clip-rule="nonzero"/></clipPath></defs><g clip-path="url(#e6d71480ff)"><path fill="#000000" d="M 25.421875 17.839844 L 25.421875 23.707031 C 25.421875 24.917969 24.453125 25.902344 23.261719 25.902344 L 21.097656 25.902344 C 20.203125 25.902344 19.476562 25.167969 19.476562 24.261719 L 19.476562 23.15625 C 19.476562 22.855469 19.230469 22.613281 18.933594 22.613281 L 17.851562 22.613281 C 17.554688 22.613281 17.3125 22.855469 17.3125 23.15625 L 17.3125 24.261719 C 17.3125 25.167969 16.582031 25.902344 15.6875 25.902344 L 13.523438 25.902344 C 12.328125 25.902344 11.359375 24.917969 11.359375 23.707031 L 11.359375 17.839844 C 11.359375 17.230469 11.617188 16.636719 12.0625 16.222656 L 16.933594 11.691406 C 17.347656 11.300781 17.875 11.105469 18.394531 11.105469 C 18.914062 11.105469 19.4375 11.300781 19.851562 11.691406 L 24.71875 16.222656 C 25.167969 16.636719 25.421875 17.230469 25.421875 17.839844 Z M 25.421875 17.839844 " fill-opacity="1" fill-rule="nonzero"/></g></svg>