<svg xmlns="http://www.w3.org/2000/svg" xmlns:xlink="http://www.w3.org/1999/xlink" width="50" zoomAndPan="magnify" viewBox="0 0 37.5 37.499999" height="50" preserveAspectRatio="xMidYMid meet" version="1.0"><defs><clipPath id="2247be882d"><path d="M 11.101562 11.101562 L 25.90625 11.101562 L 25.90625 25.90625 L 11.101562 25.90625 Z M 11.101562 11.101562 " clip-rule="nonzero"/></clipPath></defs><g clip-path="url(#2247be882d)"><path fill="#ffffff" d="M 19.226562 11.15625 C 18.753906 11.109375 18.273438 11.109375 17.796875 11.15625 L 17.480469 12.316406 C 17.082031 12.382812 16.6875 12.488281 16.308594 12.628906 L 15.453125 11.785156 C 15.019531 11.980469 14.605469 12.222656 14.214844 12.5 L 14.519531 13.660156 C 14.207031 13.917969 13.917969 14.207031 13.660156 14.519531 L 12.5 14.214844 C 12.21875 14.605469 11.980469 15.019531 11.785156 15.453125 L 12.628906 16.308594 C 12.488281 16.6875 12.382812 17.082031 12.316406 17.480469 L 11.15625 17.796875 C 11.109375 18.273438 11.109375 18.753906 11.15625 19.226562 L 12.316406 19.542969 C 12.382812 19.945312 12.488281 20.339844 12.628906 20.71875 L 11.785156 21.574219 C 11.980469 22.007812 12.21875 22.421875 12.5 22.808594 L 13.660156 22.503906 C 13.917969 22.820312 14.207031 23.105469 14.519531 23.363281 L 14.214844 24.527344 C 14.605469 24.804688 15.019531 25.042969 15.453125 25.242188 L 16.308594 24.394531 C 16.6875 24.539062 17.082031 24.644531 17.480469 24.710938 L 17.796875 25.871094 C 18.273438 25.917969 18.753906 25.917969 19.226562 25.871094 L 19.542969 24.710938 C 19.945312 24.644531 20.335938 24.539062 20.71875 24.394531 L 21.570312 25.242188 C 22.007812 25.042969 22.421875 24.804688 22.808594 24.527344 L 22.503906 23.363281 C 22.820312 23.105469 23.105469 22.820312 23.363281 22.503906 L 24.527344 22.808594 C 24.804688 22.421875 25.042969 22.007812 25.242188 21.574219 L 24.394531 20.71875 C 24.539062 20.339844 24.644531 19.945312 24.710938 19.542969 L 25.871094 19.226562 C 25.914062 18.753906 25.914062 18.273438 25.871094 17.796875 L 24.710938 17.480469 C 24.644531 17.082031 24.539062 16.6875 24.394531 16.308594 L 25.242188 15.453125 C 25.042969 15.019531 24.804688 14.605469 24.527344 14.214844 L 23.363281 14.519531 C 23.105469 14.207031 22.820312 13.917969 22.503906 13.660156 L 22.808594 12.5 C 22.421875 12.222656 22.007812 11.980469 21.570312 11.785156 L 20.71875 12.628906 C 20.335938 12.488281 19.945312 12.382812 19.542969 12.316406 Z M 18.511719 14.578125 C 20.683594 14.578125 22.449219 16.339844 22.449219 18.511719 C 22.449219 20.683594 20.683594 22.449219 18.511719 22.449219 C 16.339844 22.449219 14.578125 20.683594 14.578125 18.511719 C 14.578125 16.339844 16.339844 14.578125 18.511719 14.578125 Z M 18.511719 14.578125 " fill-opacity="1" fill-rule="evenodd"/></g></svg>