<?xml version="1.0" encoding="utf-8"?>
<!-- Generator: Adobe Illustrator 24.2.0, SVG Export Plug-In . SVG Version: 6.00 Build 0)  -->
<svg version="1.1" id="Layer_1" xmlns="http://www.w3.org/2000/svg" xmlns:xlink="http://www.w3.org/1999/xlink" x="0px" y="0px"
	 viewBox="0 0 595.3 589.5" style="enable-background:new 0 0 595.3 589.5;" xml:space="preserve">
<style type="text/css">
	.st0{fill-rule:evenodd;clip-rule:evenodd;fill:#FFFFFF;}
	.st1{fill-rule:evenodd;clip-rule:evenodd;fill:#2D2784;}
	.st2{fill-rule:evenodd;clip-rule:evenodd;fill:#287EC2;}
</style>
<g>
	<polygon class="st0" points="299,12.4 156.1,94.8 156.1,246.7 24.4,322.1 24.4,486.1 165.2,567.5 296.9,491.1 430.7,569.5 
		568.5,487.1 570.5,321.1 436.7,246.7 437.7,93.8 	"/>
	<polygon class="st1" points="297.9,26.5 166.2,101.9 166.2,253.7 297.9,179.3 	"/>
	<polygon class="st2" points="297.9,26.5 297.9,178.3 427.7,253.7 427.7,102.9 	"/>
	<polygon class="st2" points="297.4,479.9 429,555.8 559.1,481.2 428.5,405.7 	"/>
	<polygon class="st2" points="34.2,479.7 165.7,403.8 166.2,253.7 35.5,329.2 	"/>
	<polygon class="st1" points="33.8,479.8 165,556.2 296.5,480.3 166.2,403.4 	"/>
	<polygon class="st1" points="428.1,253.7 427.5,405.6 559,481.5 560.5,330.2 	"/>
	<polygon class="st0" points="427.7,405.8 296.1,480.8 165.4,404.4 166.2,253 297.8,178 428.5,254.4 	"/>
	<g>
		<path class="st1" d="M231.8,347.3v-91.3h19.9c4.8,0,8.9,0.2,12.5,0.6c3.5,0.4,6.9,1.4,10,2.8c3.8,2,7,4.9,9.5,8.6
			c2.5,3.8,3.8,7.7,3.8,11.9c0,3.8-0.9,7.3-2.7,10.4c-1.8,3.2-4.4,5.5-7.8,7.1c5.2,1.6,9.2,4.3,11.9,8.1c2.8,3.9,4.1,8.5,4.1,13.8
			c0,9.1-3.8,16.4-11.5,21.7c-3.3,2.4-7.5,4.1-12.4,5.1c-3.8,0.7-8.4,1.1-13.7,1.1L231.8,347.3L231.8,347.3L231.8,347.3z
			 M249.4,291.3h3.3h2.8c1.4,0,3-0.1,4.7-0.4c1.7-0.2,3.1-0.6,4.2-1.1c3.6-1.6,5.4-4.4,5.4-8.4c0-1.9-0.5-3.5-1.5-4.9
			s-2.5-2.5-4.3-3.3c-0.6-0.2-1.4-0.4-2.4-0.6c-1-0.1-2.1-0.2-3.3-0.2h-8.9V291.3L249.4,291.3z M249.4,330.7h7.1
			c3.1,0,5.7-0.2,8-0.6c2.3-0.4,4.5-1.3,6.5-2.6c3.1-2,4.6-4.9,4.6-8.9c0-2.1-0.5-3.9-1.5-5.4c-1-1.5-2.6-2.8-4.8-3.9
			c-1.2-0.7-2.7-1.1-4.5-1.4c-1.8-0.2-3.6-0.4-5.4-0.4h-9.9V330.7z"/>
		<polygon class="st1" points="307.2,347.3 307.2,255.9 324.9,255.9 324.9,295.4 354.3,255.9 375.2,255.9 339.4,300.8 375.2,347.3 
			354.3,347.3 324.9,307.2 324.9,347.3 307.2,347.3 		"/>
	</g>
	<g>
		<polygon class="st2" points="221.6,400.6 221.6,373 214.8,373 214.8,366.8 235.3,366.8 235.3,373 228.4,373 228.4,400.6 		"/>
		<path class="st2" d="M246.1,400.6h-6.9v-33.8h9.6c2.1,0,3.9,0.1,5.2,0.3c1.3,0.2,2.7,0.7,4.1,1.6c1.4,0.9,2.5,2,3.4,3.6
			c0.9,1.5,1.3,3.2,1.3,4.9c0,1.7-0.4,3.3-1.1,4.7c-0.7,1.5-1.8,2.8-3.3,3.8c-1.1,0.9-2.6,1.5-4.4,1.8c-1.3,0.2-3,0.4-5,0.4h-1.5
			h-1.3V400.6L246.1,400.6z M246.1,381.8h1.2h1.5c1.3,0,2.5-0.1,3.6-0.4c1.1-0.3,2-0.8,2.6-1.5s0.9-1.6,0.9-2.6c0-2.2-1.2-3.5-3.6-4
			c-1-0.2-2.2-0.3-3.5-0.3h-2.8L246.1,381.8L246.1,381.8z"/>
		<rect x="267.8" y="394.5" class="st2" width="6.7" height="6.1"/>
		<polygon class="st2" points="282.1,400.6 282.1,366.8 289,366.8 289,380.4 302.2,380.4 302.2,366.8 309,366.8 309,400.6 
			302.2,400.6 302.2,386.5 289,386.5 289,400.6 		"/>
		<path class="st2" d="M342.7,391.4h7.9c-1.4,3-3.6,5.4-6.8,7.3c-3.2,1.8-6.6,2.8-10.2,2.8c-5.3,0-9.8-1.8-13.5-5.3
			c-3.8-3.5-5.6-7.7-5.6-12.5c0-4.8,1.9-8.9,5.6-12.4c3.7-3.4,8.2-5.2,13.4-5.2c3.8,0,7.3,0.9,10.6,2.8c3.2,1.9,5.6,4.4,6.9,7.5
			l-7.8,0c-1.2-1.3-2.6-2.3-4.3-3.1c-1.7-0.7-3.5-1.1-5.4-1.1c-3.3,0-6.2,1.1-8.5,3.4c-2.4,2.3-3.5,5-3.5,8.2c0,3,1.2,5.7,3.6,8
			c2.4,2.3,5.3,3.4,8.5,3.4c1.8,0,3.5-0.3,5-1C340,393.7,341.4,392.7,342.7,391.4z"/>
		<polygon class="st2" points="355.6,400.6 355.6,366.8 365,366.8 374.9,392.7 384.9,366.8 394.2,366.8 394.2,400.6 387.4,400.6 
			387.4,375.3 377.8,400.6 372,400.6 362.5,375.3 362.5,400.6 355.6,400.6 		"/>
	</g>
</g>
<image style="overflow:visible;" width="958" height="749" xlink:href="76327961.jpg"  transform="matrix(1 0 0 1 615.5 46.5)">
</image>
</svg>
